<?xml version="1.0" encoding="utf-8"?>
<!-- Uploaded to: SVG Repo, www.svgrepo.com, Generator: SVG Repo Mixer Tools -->
<svg width="800px" height="800px" viewBox="0 0 24 24" fill="none" xmlns="http://www.w3.org/2000/svg">
  <defs>
    <linearGradient id="paint0_linear_883_4378" x1="15" y1="0" x2="15" y2="30" gradientUnits="userSpaceOnUse">
      <stop stop-color="#DD7EFF"/>
      <stop offset="0.461458" stop-color="#685DFF"/>
      <stop offset="1" stop-color="#2152FF"/>
    </linearGradient>
  </defs>
  <path d="M7 12H17M8 8.5C8 8.5 9 9 10 9C11.5 9 12.5 8 14 8C15 8 16 8.5 16 8.5M8 15.5C8 15.5 9 16 10 16C11.5 16 12.5 15 14 15C15 15 16 15.5 16 15.5M21 12C21 16.9706 16.9706 21 12 21C7.02944 21 3 16.9706 3 12C3 7.02944 7.02944 3 12 3C16.9706 3 21 7.02944 21 12Z" stroke="url(#paint0_linear_883_4378)" stroke-width="2" stroke-linecap="round" stroke-linejoin="round"/>
</svg>