<?xml version="1.0" encoding="utf-8"?>
<!-- Svg Vector Icons : http://www.onlinewebfonts.com/icon -->
<!DOCTYPE svg PUBLIC "-//W3C//DTD SVG 1.1//EN" "http://www.w3.org/Graphics/SVG/1.1/DTD/svg11.dtd">
<svg version="1.1" xmlns="http://www.w3.org/2000/svg" xmlns:xlink="http://www.w3.org/1999/xlink" x="0px" y="0px" viewBox="0 0 256 256" enable-background="new 0 0 256 256" xml:space="preserve">
<metadata> Svg Vector Icons : http://www.onlinewebfonts.com/icon </metadata>
<g><g><path fill="#ffffff" d="M213.8,199.7c0,0.1,0,0.2,0,0.4c0,9.3,4.8,24.7,7.8,30h0c0.2,0.6,0.4,1.2,0.4,1.9c0,2.6-2.1,4.7-4.7,4.7c-0.4,0-1-0.1-1.2-0.1c-0.1,0-0.1,0-0.1,0c-16.3-2.6-36.2-21.7-39.8-26c-3.7,0.5-6.1,0.6-9.2,0.6c-1.3,0-2.7,0-4.3,0c-30,0-54-11.3-68.6-29.2c0.5-0.5,24.5-0.5,21.1-0.3c12.7,9.9,27.5,14.7,47.5,14.7c0,0,8.3,0,11.4-0.5l7.8-1.2c0,0,4.9,8.8,19.3,19.3c-1.1-4.8-1.9-23.7-1.9-23.7l7.3-3.6c17.2-8.8,24.6-20.3,24.6-36.2c0-13-3.6-21.9-16.2-30.6c1.6-5,3.2-10.7,3.6-16c19.5,11.4,27.3,26.7,27.3,46.6C246,172.1,235.8,188.5,213.8,199.7L213.8,199.7z M107.9,166.5c-1.9,0-3.5,0-5,0c-3.5,0-6.4-0.1-10.6-0.7c-4.1,5-31.9,26.2-50.7,29.3c0,0,0,0-0.1,0c-0.3,0-1,0.1-1.4,0.1c-3,0-5.5-2.4-5.5-5.4c0-0.8,0.2-1.5,0.4-2.1h0c3.5-6.1,12.5-20.9,12.5-31.7c0-0.2,0-0.3,0-0.4C22.2,142.4,10,115.9,10,91.1c0-39.9,43.1-71.8,96.3-71.8c53.2,0,95.4,31.9,95.4,71.8C202.3,136.2,161.1,166.5,107.9,166.5L107.9,166.5z M106.3,34c-45,0-81.6,25.3-81.6,57c0,19,9.2,40.8,29.6,51.2l8,4.1l-0.7,9c0,0,0.2,4.5-4.8,18.7c8.2-5.2,17.7-13.1,19.9-15.6l9.4-7.8l8.2,0.6c7.1,1,13.9,0.8,13.9,0.8c45,0,78.4-25.8,78.6-61C187,59.4,151.3,34,106.3,34L106.3,34z"/><path fill="#ffffff" d="M56.7,93.9c0,5.5,4.4,9.9,9.9,9.9c5.5,0,9.9-4.4,9.9-9.9c0-5.5-4.4-9.9-9.9-9.9S56.7,88.4,56.7,93.9L56.7,93.9z"/><path fill="#ffffff" d="M98.5,93.9c0,5.5,4.4,9.9,9.9,9.9c5.5,0,9.9-4.4,9.9-9.9c0-5.5-4.4-9.9-9.9-9.9S98.5,88.4,98.5,93.9z"/><path fill="#ffffff" d="M140.2,93.9c0,5.5,4.4,9.9,9.9,9.9c5.5,0,9.9-4.4,9.9-9.9c0-5.5-4.4-9.9-9.9-9.9S140.2,88.4,140.2,93.9L140.2,93.9z"/></g></g>
</svg>