<svg version="1.2" xmlns="http://www.w3.org/2000/svg" viewBox="0 0 25 25" width="25" height="25"><style></style><path fill-rule="evenodd" d="m20.9 19.5q0 0 0 0c0 0.9 0.4 2.5 0.7 3q0.1 0.1 0.1 0.2c0 0.2-0.2 0.4-0.5 0.4q-0.1 0-0.1 0 0 0 0 0c-1.6-0.2-3.5-2.1-3.9-2.5-0.4 0-0.6 0-0.9 0q-0.2 0-0.4 0c-2.9 0-5.3-1.1-6.7-2.8 0-0.1 2.4-0.1 2.1-0.1 1.2 1 2.6 1.5 4.6 1.5 0 0 0.8 0 1.1-0.1l0.8-0.1c0 0 0.4 0.9 1.8 1.9-0.1-0.5-0.1-2.3-0.1-2.3l0.7-0.4c1.7-0.8 2.4-2 2.4-3.5 0-1.3-0.4-2.1-1.6-3 0.2-0.5 0.3-1 0.3-1.6 2 1.2 2.7 2.7 2.7 4.6 0 2.1-1 3.7-3.1 4.8zm-10.4-3.2q-0.2 0-0.5 0c-0.3 0-0.6 0-1-0.1-0.4 0.5-3.1 2.6-4.9 2.9q0 0 0 0c-0.1 0-0.1 0-0.2 0-0.3 0-0.5-0.3-0.5-0.6q0-0.1 0-0.2c0.4-0.6 1.2-2 1.2-3.1q0 0 0 0c-2.4-1.3-3.6-3.9-3.6-6.3 0-3.9 4.2-7 9.4-7 5.2 0 9.3 3.1 9.3 7 0.1 4.4-4 7.4-9.2 7.4zm-0.1-13c-4.4 0-8 2.5-8 5.6 0 1.8 0.9 4 2.9 5l0.8 0.4-0.1 0.9c0 0 0 0.4-0.5 1.8 0.8-0.5 1.8-1.3 2-1.5l0.9-0.8 0.8 0.1c0.7 0.1 1.4 0 1.4 0 4.4 0 7.6-2.5 7.6-5.9 0.1-3.1-3.4-5.6-7.8-5.6z"  fill="#ffffff"/><path  d="m6.5 10.1c-0.5 0-1-0.4-1-0.9 0-0.6 0.5-1 1-1 0.5 0 1 0.4 1 1 0 0.5-0.5 0.9-1 0.9z"  fill="#ffffff"/><path  d="m10.6 10.1c-0.5 0-1-0.4-1-0.9 0-0.6 0.5-1 1-1 0.5 0 1 0.4 1 1 0 0.5-0.5 0.9-1 0.9z"  fill="#ffffff"/><path  d="m14.7 10.1c-0.6 0-1-0.4-1-0.9 0-0.6 0.4-1 1-1 0.5 0 0.9 0.4 0.9 1 0 0.5-0.4 0.9-0.9 0.9z" fill="#ffffff"/></svg>